<svg width="16" height="16" viewBox="0 0 16 16" fill="none" xmlns="http://www.w3.org/2000/svg">
<path d="M13.7614 6.99805H2.51141M10.6364 1.99805V4.49805M5.63641 1.99805V4.49805M5.51141 14.498H10.7614C11.8115 14.498 12.3366 14.498 12.7376 14.2937C13.0904 14.1139 13.3773 13.8271 13.5571 13.4743C13.7614 13.0732 13.7614 12.5481 13.7614 11.498V6.24805C13.7614 5.19795 13.7614 4.6729 13.5571 4.27181C13.3773 3.91901 13.0904 3.63217 12.7376 3.45241C12.3366 3.24805 11.8115 3.24805 10.7614 3.24805H5.51141C4.46132 3.24805 3.93627 3.24805 3.53518 3.45241C3.18238 3.63217 2.89554 3.91901 2.71578 4.27181C2.51141 4.6729 2.51141 5.19795 2.51141 6.24805V11.498C2.51141 12.5481 2.51141 13.0732 2.71578 13.4743C2.89554 13.8271 3.18238 14.1139 3.53518 14.2937C3.93627 14.498 4.46132 14.498 5.51141 14.498Z" stroke="#242424" stroke-linecap="round" stroke-linejoin="round"/>
</svg>
