<svg width="400" height="44" viewBox="0 0 400 44" fill="none" xmlns="http://www.w3.org/2000/svg">
<path d="M2 2C11.8924 2 11.8924 42 21.7847 42C31.6771 42 31.6771 2 41.5695 2C51.4619 2 51.4619 42 61.331 42C71.2237 42 71.2237 2 81.0926 2C90.9852 2 90.9852 42 100.854 42C110.747 42 110.747 2 120.639 2C130.531 2 130.531 42 140.424 42C150.316 42 150.316 2 160.208 2C170.101 2 170.101 42 179.993 42C189.885 42 189.885 2 199.778 2C209.67 2 209.67 42 219.563 42C229.455 42 229.455 2 239.347 2C249.24 2 249.24 42 259.109 42C269.001 42 269.001 2 278.87 2C288.763 2 288.763 42 298.632 42C308.524 42 308.524 2 318.416 2C328.309 2 328.309 42 338.201 42C348.093 42 348.093 2 357.986 2C367.879 2 367.878 42 377.771 42C387.663 42 387.663 2 397.556 2" stroke="#FFCC17" stroke-width="3" stroke-miterlimit="10" stroke-linecap="round"/>
</svg>
