<svg width="378" height="194" viewBox="0 0 378 194" fill="none" xmlns="http://www.w3.org/2000/svg">
<path d="M1.60684 110.347C10.9397 159.463 37.0843 195.749 60.0025 191.394C82.9208 187.039 93.9342 143.693 84.6013 94.5767C79.371 67.0508 67.2662 46.2308 57.5645 48.0742C47.8629 49.9177 44.2383 73.7265 49.4687 101.252C58.8015 150.369 84.9461 186.655 107.864 182.3C130.783 177.945 141.797 134.598 132.464 85.4821C127.233 57.9562 115.128 37.1362 105.426 38.9797C95.7247 40.8232 92.1001 64.632 97.3305 92.158C106.663 141.274 132.922 177.538 155.981 173.157C179.039 168.775 190.167 125.407 180.835 76.2909C175.604 48.7649 163.499 27.945 153.797 29.7885C144.095 31.632 140.472 55.4407 145.702 82.9666C155.035 132.083 181.179 168.369 204.097 164.014C227.016 159.659 238.028 116.313 228.695 67.1966C223.465 39.6707 211.361 18.8504 201.659 20.6939C191.957 22.5375 188.333 46.3464 193.563 73.8723C202.896 122.989 229.041 159.274 251.959 154.919C274.878 150.565 285.89 107.218 276.558 58.1021C271.327 30.5761 259.222 9.75614 249.522 11.5994C239.82 13.4429 236.195 37.2518 241.425 64.7778C250.758 113.894 276.903 150.18 299.82 145.825C322.739 141.47 333.753 98.1237 324.42 49.0075C319.189 21.4815 307.084 0.661566 297.382 2.50508C287.682 4.34832 284.057 28.1572 289.287 55.6832C298.62 104.799 324.878 141.064 347.937 136.682C370.995 132.301 382.123 88.9325 372.791 39.8163" stroke="#FFCC17" stroke-width="3" stroke-linecap="round"/>
</svg>
