<svg width="16" height="16" viewBox="0 0 16 16" fill="none" xmlns="http://www.w3.org/2000/svg">
<g clip-path="url(#clip0_407_1605)">
<path d="M13.3069 6.34082H2.05688M10.1819 1.34082V3.84082M5.18188 1.34082V3.84082M5.05688 13.8408H10.3069C11.357 13.8408 11.882 13.8408 12.2831 13.6365C12.6359 13.4567 12.9228 13.1699 13.1025 12.8171C13.3069 12.416 13.3069 11.8909 13.3069 10.8408V5.59082C13.3069 4.54072 13.3069 4.01567 13.1025 3.61459C12.9228 3.26178 12.6359 2.97495 12.2831 2.79518C11.882 2.59082 11.357 2.59082 10.3069 2.59082H5.05688C4.00679 2.59082 3.48174 2.59082 3.08065 2.79518C2.72785 2.97495 2.44101 3.26178 2.26125 3.61459C2.05688 4.01567 2.05688 4.54072 2.05688 5.59082V10.8408C2.05688 11.8909 2.05688 12.416 2.26125 12.8171C2.44101 13.1699 2.72785 13.4567 3.08065 13.6365C3.48174 13.8408 4.00679 13.8408 5.05688 13.8408Z" stroke="#FFF9E4" stroke-width="2" stroke-linecap="round" stroke-linejoin="round"/>
</g>
<defs>
<clipPath id="clip0_407_1605">
<rect width="15" height="15" fill="white" transform="translate(0.181885 0.0908203)"/>
</clipPath>
</defs>
</svg>
