<svg width="16" height="16" viewBox="0 0 16 16" fill="none" xmlns="http://www.w3.org/2000/svg">
<path d="M7.77277 8.24805L5.10221 6.02258C4.70543 5.69193 4.50704 5.52661 4.36442 5.32394C4.23804 5.14438 4.1442 4.94401 4.08715 4.73197C4.02277 4.49266 4.02277 4.23442 4.02277 3.71792V1.99805M7.77277 8.24805L10.4433 6.02259C10.8401 5.69193 11.0385 5.52661 11.1811 5.32394C11.3075 5.14438 11.4013 4.94401 11.4584 4.73197C11.5228 4.49266 11.5228 4.23442 11.5228 3.71792V1.99805M7.77277 8.24805L5.10221 10.4735C4.70543 10.8042 4.50704 10.9695 4.36442 11.1721C4.23804 11.3517 4.1442 11.5521 4.08715 11.7641C4.02277 12.0034 4.02277 12.2617 4.02277 12.7782V14.498M7.77277 8.24805L10.4433 10.4735C10.8401 10.8042 11.0385 10.9695 11.1811 11.1721C11.3075 11.3517 11.4013 11.5521 11.4584 11.7641C11.5228 12.0034 11.5228 12.2617 11.5228 12.7782V14.498M2.77277 1.99805H12.7728M2.77277 14.498H12.7728" stroke="#242424" stroke-linecap="round" stroke-linejoin="round"/>
</svg>
