<svg width="16" height="16" viewBox="0 0 16 16" fill="none" xmlns="http://www.w3.org/2000/svg">
<g clip-path="url(#clip0_407_1630)">
<path d="M7.95459 7.59082L5.28404 5.36536C4.88725 5.03471 4.68886 4.86938 4.54624 4.66672C4.41987 4.48715 4.32602 4.28678 4.26897 4.07475C4.20459 3.83544 4.20459 3.57719 4.20459 3.0607V1.34082M7.95459 7.59082L10.6251 5.36536C11.0219 5.03471 11.2203 4.86938 11.3629 4.66672C11.4893 4.48715 11.5832 4.28678 11.6402 4.07475C11.7046 3.83544 11.7046 3.57719 11.7046 3.0607V1.34082M7.95459 7.59082L5.28404 9.81628C4.88725 10.1469 4.68886 10.3123 4.54624 10.5149C4.41987 10.6945 4.32602 10.8949 4.26897 11.1069C4.20459 11.3462 4.20459 11.6045 4.20459 12.1209V13.8408M7.95459 7.59082L10.6251 9.81628C11.0219 10.1469 11.2203 10.3123 11.3629 10.5149C11.4893 10.6945 11.5832 10.8949 11.6402 11.1069C11.7046 11.3462 11.7046 11.6045 11.7046 12.1209V13.8408M2.95459 1.34082H12.9546M2.95459 13.8408H12.9546" stroke="#FFF9E4" stroke-width="2" stroke-linecap="round" stroke-linejoin="round"/>
</g>
<defs>
<clipPath id="clip0_407_1630">
<rect width="15" height="15" fill="white" transform="translate(0.45459 0.0908203)"/>
</clipPath>
</defs>
</svg>
