<svg width="364" height="107" viewBox="0 0 364 107" fill="none" xmlns="http://www.w3.org/2000/svg">
<path d="M2 38.9927C2 75.4477 16.2991 105 33.938 105C51.5769 105 65.8761 75.4477 65.8761 38.9927C65.8761 18.5624 59.8231 2.00026 52.3563 2.00026C44.8895 2.00026 38.8365 18.5624 38.8365 38.9927C38.8365 75.4477 53.1356 105 70.7745 105C88.4135 105 102.713 75.4477 102.713 38.9927C102.713 18.5624 96.6598 2.00026 89.1928 2.00026C81.726 2.00026 75.673 18.5624 75.673 38.9927C75.673 75.4477 90.0599 105 107.807 105C125.554 105 139.941 75.4477 139.941 38.9927C139.941 18.5624 133.888 2.00026 126.421 2.00026C118.954 2.00026 112.902 18.5624 112.902 38.9927C112.902 75.4477 127.2 105 144.839 105C162.478 105 176.777 75.4477 176.777 38.9927C176.777 18.5624 170.725 2.00026 163.258 2.00026C155.791 2.00026 149.738 18.5624 149.738 38.9927C149.738 75.4477 164.037 105 181.676 105C199.315 105 213.614 75.4477 213.614 38.9927C213.614 18.5624 207.561 2.00025 200.095 2.00025C192.628 2.00025 186.574 18.5624 186.574 38.9927C186.574 75.4477 200.874 105 218.512 105C236.151 105 250.451 75.4477 250.451 38.9927C250.451 18.5624 244.397 2.00025 236.93 2.00025C229.464 2.00025 223.411 18.5624 223.411 38.9927M223.411 38.9927C223.411 75.4477 237.798 105 255.544 105C273.291 105 287.679 75.4477 287.679 38.9927M223.411 38.9927C223.411 75.4477 238.358 105 255.997 105C273.636 105 287.935 75.4475 287.935 38.9925C287.935 18.5622 281.882 2 274.415 2C266.948 2 260.895 18.5622 260.895 38.9925C260.895 75.4475 275.194 105 292.833 105C310.472 105 324.772 75.4475 324.772 38.9925C324.772 18.5622 318.719 2 311.251 2C303.785 2 297.732 18.5622 297.732 38.9925C297.732 75.4475 312.119 105 329.866 105C347.613 105 362 75.4475 362 38.9925" stroke="#949494" stroke-width="3" stroke-linecap="round"/>
</svg>
