<svg width="404" height="58" viewBox="0 0 404 58" fill="none" xmlns="http://www.w3.org/2000/svg">
<path d="M2 2C14.5055 2 14.5055 56 27.011 56C39.5165 56 39.5165 2 52.0221 2C64.5276 2 64.5276 56 77.0038 56C89.5097 56 89.5097 2 101.985 2C114.491 2 114.491 56 126.967 56C139.473 56 139.473 2 151.978 2C164.484 2 164.484 56 176.989 56C189.494 56 189.494 2 202 2C214.506 2 214.506 56 227.012 56C239.516 56 239.516 2 252.022 2C264.528 2 264.528 56 277.033 56C289.539 56 289.539 2 302.044 2C314.55 2 314.55 56 327.026 56C339.532 56 339.532 2 352.008 2C364.514 2 364.514 56 376.989 56C389.495 56 389.495 2 402 2" stroke="#949494" stroke-width="3" stroke-miterlimit="10" stroke-linecap="round"/>
</svg>
