<svg width="254" height="136" viewBox="0 0 254 136" fill="none" xmlns="http://www.w3.org/2000/svg">
<path d="M1.26416 92.5669C13.8253 88.032 32.1622 138.823 44.7234 134.288C57.2846 129.754 38.9476 78.9622 51.5088 74.4273C64.07 69.8924 82.4069 120.684 94.9386 116.159C107.5 111.624 89.1632 60.8331 101.695 56.309C114.256 51.774 132.593 102.565 145.124 98.0412C157.686 93.5062 139.349 42.7149 151.909 38.1803C164.471 33.6453 182.808 84.4366 195.369 79.9016C207.93 75.3669 189.593 24.5756 202.154 20.0406C214.716 15.5056 233.052 66.2969 245.614 61.762C258.174 57.2273 239.838 6.43598 252.399 1.90099" stroke="#FFCC17" stroke-width="2" stroke-miterlimit="10" stroke-linecap="round"/>
</svg>
