<svg width="251" height="113" viewBox="0 0 251 113" fill="none" xmlns="http://www.w3.org/2000/svg">
<path d="M2.09766 103.811C14.4502 98.7353 21.2915 115.385 33.644 110.309C45.9965 105.233 39.1552 88.5838 51.5077 83.5081C63.8603 78.4323 70.7016 95.0815 83.0251 90.0177C95.378 84.9418 88.5367 68.2926 100.86 63.2289C113.213 58.153 120.054 74.8022 132.377 69.7385C144.73 64.6627 137.889 48.0135 150.241 42.938C162.593 37.8621 169.435 54.5114 181.788 49.4355C194.139 44.36 187.298 27.7108 199.651 22.6349C212.004 17.5591 218.845 34.2083 231.198 29.1324C243.55 24.057 236.708 7.40773 249.061 2.33188" stroke="#FFCC17" stroke-width="3" stroke-miterlimit="10" stroke-linecap="round"/>
</svg>
