<svg width="276" height="42" viewBox="0 0 276 42" fill="none" xmlns="http://www.w3.org/2000/svg">
<path fill-rule="evenodd" clip-rule="evenodd" d="M5.42717 6.6582L8.41604 16.3207L0 21.1113L8.18008 25.8208L5.66312 34.9149L15.259 32.885L20.2142 41.2484L25.0908 32.885L34.1361 34.9149L31.7764 25.8208L40.0352 21.1113L31.7764 16.3207L34.1361 6.6582L25.4054 8.44454L20.2142 0L14.8657 8.85053L5.42717 6.6582ZM8.96662 16.1583V25.2524L15.1803 31.9918H25.0121L31.1472 25.2524V16.1583L25.0121 9.25652H15.1803L8.96662 16.1583Z" fill="#FFCC17"/>
<path d="M29.2595 20.6242C29.2595 25.9158 25.1041 30.2055 19.9782 30.2055C14.8524 30.2055 10.697 25.9158 10.697 20.6242C10.697 15.3326 14.8524 11.0429 19.9782 11.0429C25.1041 11.0429 29.2595 15.3326 29.2595 20.6242ZM13.2594 20.6242C13.2594 24.4548 16.2675 27.5602 19.9782 27.5602C23.6889 27.5602 26.697 24.4548 26.697 20.6242C26.697 16.7935 23.6889 13.6881 19.9782 13.6881C16.2675 13.6881 13.2594 16.7935 13.2594 20.6242Z" fill="#FFF06D"/>
<path d="M14.2364 2.27358L9.51717 5.11549L14.2364 7.63262V2.27358Z" fill="#FF9417"/>
<path d="M25.7202 2.27358L30.4394 5.11549L25.7202 7.63262V2.27358Z" fill="#FF9417"/>
<path d="M25.3267 39.1373L30.046 36.2954L25.3267 33.7782V39.1373Z" fill="#FF9417"/>
<path d="M14.9443 39.1373L10.225 36.2954L14.9443 33.7782V39.1373Z" fill="#FF9417"/>
<path d="M3.3035 11.936L1.73039 16.7267L6.76429 15.9147L3.3035 11.936Z" fill="#FF9417"/>
<path d="M2.07372 26.0334L4.17324 30.6039L7.24108 26.4046L2.07372 26.0334Z" fill="#FF9417"/>
<path d="M37.2716 30.8766L39.2035 26.2279L34.1234 26.6302L37.2716 30.8766Z" fill="#FF9417"/>
<path d="M37.9824 16.4531L36.3652 11.6781L32.8825 15.5171L37.9824 16.4531Z" fill="#FF9417"/>
<path fill-rule="evenodd" clip-rule="evenodd" d="M258.395 36.6968L265.161 4.24615H269.171L276 36.6968H271.928C271.14 32.3693 269.189 30.9167 263.533 29.7202L262.342 36.6968H258.395ZM264.723 25.9439C266.91 26.3681 268.103 26.7605 270.174 27.736L267.104 13.5269L264.723 25.9439Z" fill="#FFCC17"/>
<path d="M237.647 4.24615H233.937V36.6968H250.662L249.719 40.5145H253.805L255.377 32.7381H251.605V4.24615H247.644V32.7381H237.647V4.24615Z" fill="#FFCC17"/>
<path d="M217.1 4.24615H213.314V36.6968H217.1V25.8375H227.133V36.6968H230.919V4.24615H227.133V21.8368H217.1V4.24615Z" fill="#FFCC17"/>
<path d="M196.464 36.6968H192.692L199.608 4.24615H210.296V36.6968H206.398V7.90889H202.689L196.464 36.6968Z" fill="#FFCC17"/>
<path d="M157.803 31.4665C154.805 34.6823 150.508 36.6968 145.735 36.6968C136.672 36.6968 129.325 29.4324 129.325 20.4714C129.325 11.5104 136.672 4.24615 145.735 4.24615C150.491 4.24615 154.775 6.24661 157.772 9.44294L155.13 12.1141C152.817 9.5735 149.465 7.97611 145.735 7.97611C138.756 7.97611 133.098 13.5704 133.098 20.4714C133.098 27.3724 138.756 32.9668 145.735 32.9668C149.511 32.9668 152.9 31.3295 155.216 28.7339L157.803 31.4665Z" fill="#FFCC17"/>
<path d="M114.613 36.9512H110.589V26.3263L105.699 24.9822C105.699 24.9822 102.383 24.072 100.746 22.678L100.735 22.6686C99.5377 21.6488 99.1958 21.3576 98.2084 19.4777C97.5152 18.158 97.321 17.3852 97.218 15.9575C96.9084 11.6691 97.0323 4.50056 97.0323 4.50056H100.746C100.746 4.50056 100.561 11.9891 100.994 15.9575C101.16 17.474 101.703 18.2753 102.913 19.2857C103.847 20.0654 104.577 20.1865 105.699 20.6298C107.539 21.3574 110.589 21.9099 110.589 21.9099V4.50056H114.613V36.9512Z" fill="#FFCC17"/>
<path d="M81.5055 36.9512H77.6425L84.4818 20.3395L77.6425 4.50056H81.5688L86.5716 15.8325L91.3211 4.50056H95.2473L81.5055 36.9512Z" fill="#FFCC17"/>
<path d="M60.7922 36.9512H57.0198L63.9359 4.50063H74.6246V36.9512H70.7264V8.16337H67.0168L60.7922 36.9512Z" fill="#FFCC17"/>
<path fill-rule="evenodd" clip-rule="evenodd" d="M175.012 36.9472C183.974 36.9472 191.239 29.6824 191.239 20.7208C191.239 11.7593 183.974 4.49445 175.012 4.49445C166.051 4.49445 158.786 11.7593 158.786 20.7208C158.786 29.6824 166.051 36.9472 175.012 36.9472ZM174.921 33.1257C181.823 33.1257 187.417 27.5311 187.417 20.6298C187.417 13.7286 181.823 8.13402 174.921 8.13402C168.02 8.13402 162.426 13.7286 162.426 20.6298C162.426 27.5311 168.02 33.1257 174.921 33.1257Z" fill="#FFCC17"/>
</svg>
