<svg width="25" height="24" viewBox="0 0 25 24" fill="none" xmlns="http://www.w3.org/2000/svg">
<path d="M24.5 14.9826V16.2266C24.5 16.298 24.456 16.3615 24.392 16.3893C24 16.556 22.658 17.1671 22.1 17.9369C20.676 19.9032 19.588 22.7147 17.156 22.7147H7.01002C3.414 22.7147 0.5 19.8139 0.5 16.2345V16.1194C0.5 16.0242 0.577996 15.9468 0.67403 15.9468H6.32999C6.44199 15.9468 6.52401 16.05 6.51402 16.1591C6.474 16.5242 6.542 16.8972 6.71599 17.2365C7.05203 17.9131 7.74802 18.3357 8.50003 18.3357H11.3V16.1671H8.532C8.39002 16.1671 8.30601 16.0044 8.38803 15.8893C8.41801 15.8437 8.45201 15.796 8.488 15.7425C8.75002 15.3734 9.12399 14.8 9.49602 14.1472C9.74999 13.7068 9.99601 13.2365 10.194 12.7643C10.234 12.679 10.266 12.5917 10.298 12.5064C10.352 12.3556 10.408 12.2147 10.448 12.0738C10.488 11.9548 10.52 11.8298 10.552 11.7127C10.646 11.3119 10.686 10.8873 10.686 10.4468C10.686 10.2742 10.678 10.0937 10.662 9.92103C10.654 9.73255 10.63 9.54406 10.606 9.35558C10.59 9.1889 10.56 9.02423 10.528 8.85162C10.488 8.59962 10.432 8.34964 10.368 8.09764L10.346 8.00241C10.298 7.8298 10.258 7.66509 10.202 7.49249C10.044 6.95081 9.86199 6.42303 9.67001 5.92899C9.60001 5.73257 9.51999 5.54408 9.44 5.3556C9.32199 5.07184 9.20199 4.81392 9.09203 4.56986C9.03601 4.45875 8.98799 4.35755 8.94001 4.25438C8.88603 4.13731 8.83001 4.02028 8.77403 3.90913C8.73402 3.82381 8.68799 3.74446 8.65602 3.66511L8.31402 3.03812C8.266 2.9528 8.34603 2.8516 8.43999 2.8774L10.58 3.45281H10.586C10.59 3.45281 10.592 3.45478 10.594 3.45478L10.876 3.53216L11.186 3.61945L11.3 3.65121V2.38932C11.3 1.78018 11.792 1.28613 12.4 1.28613C12.704 1.28613 12.98 1.40913 13.178 1.60954C13.376 1.80996 13.5 2.08376 13.5 2.38932V4.26232L13.728 4.32579C13.746 4.33176 13.764 4.3397 13.78 4.35159C13.836 4.39326 13.916 4.4548 14.018 4.53016C14.098 4.59367 14.184 4.67105 14.288 4.7504C14.494 4.91511 14.74 5.12741 15.01 5.37143C15.082 5.43297 15.152 5.49644 15.216 5.55996C15.564 5.88135 15.954 6.25837 16.326 6.67503C16.43 6.79206 16.532 6.91111 16.636 7.03612C16.74 7.16311 16.85 7.28812 16.946 7.41314C17.072 7.57978 17.208 7.75238 17.326 7.93297C17.382 8.01829 17.446 8.10558 17.5 8.19089C17.652 8.41908 17.786 8.6552 17.914 8.89128C17.968 9.00041 18.024 9.11946 18.072 9.23653C18.214 9.552 18.326 9.87344 18.398 10.1949C18.42 10.2643 18.436 10.3397 18.444 10.4072V10.423C18.468 10.5183 18.476 10.6195 18.484 10.7227C18.516 11.052 18.5 11.3814 18.428 11.7127C18.398 11.8536 18.358 11.9865 18.31 12.1274C18.262 12.2623 18.214 12.4032 18.152 12.5361C18.032 12.8119 17.89 13.0877 17.722 13.3456C17.668 13.4409 17.604 13.5421 17.54 13.6373C17.47 13.7385 17.398 13.8338 17.334 13.927C17.246 14.0461 17.152 14.171 17.056 14.2821C16.97 14.3992 16.882 14.5163 16.786 14.6195C16.652 14.7762 16.524 14.925 16.39 15.0679C16.31 15.1611 16.224 15.2564 16.136 15.3417C16.05 15.4369 15.962 15.5222 15.882 15.6016C15.748 15.7345 15.636 15.8377 15.542 15.923L15.322 16.1234C15.29 16.1512 15.248 16.1671 15.204 16.1671H13.5V18.3357H15.644C16.124 18.3357 16.58 18.1671 16.948 17.8576C17.074 17.7484 17.624 17.2762 18.274 16.5639C18.296 16.5401 18.324 16.5223 18.356 16.5143L24.278 14.8159C24.388 14.7841 24.5 14.8675 24.5 14.9826Z" fill="white"/>
</svg>
