<svg width="217" height="166" viewBox="0 0 217 166" fill="none" xmlns="http://www.w3.org/2000/svg">
<path d="M15.7484 18.4467C-0.129005 51.4073 -3.05068 82.9196 9.22244 88.8316C21.4956 94.7437 44.3159 72.8167 60.1933 39.8561C69.0914 21.3841 72.0931 4.38062 66.8977 1.87797C61.7023 -0.624683 50.2772 12.3212 41.3792 30.7932C25.5018 63.7539 22.5801 95.2661 34.8532 101.178C47.1264 107.09 69.9471 85.1634 85.8244 52.2027C94.7225 33.7307 97.724 16.7272 92.5285 14.2245C87.3331 11.7218 75.908 24.6677 67.01 43.1397C51.1326 76.1004 48.272 107.642 60.6204 113.59C72.9687 119.539 95.8504 97.6412 111.728 64.6805C120.626 46.2085 123.627 29.205 118.432 26.7023C113.236 24.1996 101.812 37.1457 92.9138 55.6177C77.0364 88.5784 74.1144 120.09 86.3876 126.003C98.6608 131.915 121.481 109.987 137.358 77.0268C146.256 58.5548 149.258 41.5516 144.063 39.0489C138.867 36.5462 127.442 49.492 118.544 67.964C102.667 100.925 99.7454 132.437 112.019 138.349C124.292 144.261 147.112 122.334 162.989 89.3734C171.887 70.9014 174.889 53.8979 169.694 51.3955C164.498 48.8928 153.073 61.8386 144.175 80.3106C128.298 113.271 125.376 144.784 137.649 150.695C149.922 156.607 172.743 134.681 188.62 101.72C197.518 83.248 200.52 66.2445 195.324 63.7418C190.129 61.2394 178.704 74.1852 169.806 92.6572C153.929 125.618 151.068 157.159 163.416 163.108C175.764 169.056 198.646 147.159 214.524 114.198" stroke="#FFCC17" stroke-width="3" stroke-linecap="round"/>
</svg>
