<svg width="249" height="191" viewBox="0 0 249 191" fill="none" xmlns="http://www.w3.org/2000/svg">
<path d="M17.8567 20.9652C-0.42164 58.9102 -3.78513 95.1878 10.3439 101.994C24.473 108.8 50.7444 83.5572 69.0227 45.6121C79.2664 24.3467 82.722 4.772 76.741 1.8909C70.7599 -0.99021 57.6071 13.9134 47.3635 35.1787C29.0851 73.1238 25.7216 109.401 39.8507 116.207C53.9799 123.014 80.2515 97.7709 98.5298 59.8259C108.773 38.5605 112.229 18.9857 106.248 16.1045C100.267 13.2234 87.1139 28.1269 76.8702 49.3923C58.5919 87.3374 55.2987 123.649 69.5144 130.497C83.73 137.344 110.072 112.136 128.35 74.1906C138.594 52.9252 142.049 33.3504 136.068 30.4692C130.087 27.588 116.935 42.4919 106.691 63.7573C88.4129 101.702 85.049 137.98 99.1782 144.786C113.307 151.592 139.578 126.349 157.856 88.4039C168.1 67.1385 171.556 47.5641 165.575 44.6829C159.594 41.8017 146.441 56.7052 136.197 77.9706C117.919 115.916 114.556 152.193 128.685 159C142.814 165.806 169.085 140.563 187.364 102.618C197.607 81.3522 201.063 61.7774 195.082 58.8966C189.101 56.0154 175.948 70.9189 165.704 92.1843C147.426 130.129 144.063 166.407 158.191 173.213C172.32 180.019 198.592 154.776 216.871 116.831C227.114 95.5659 230.57 75.9911 224.588 73.1099C218.608 70.2291 205.455 85.1326 195.211 106.398C176.933 144.343 173.639 180.654 187.855 187.502C202.071 194.35 228.413 169.141 246.691 131.196" stroke="#FFCC17" stroke-width="3" stroke-linecap="round"/>
</svg>
