<svg width="255" height="137" viewBox="0 0 255 137" fill="none" xmlns="http://www.w3.org/2000/svg">
<path d="M2 92.6659C14.5612 88.131 32.8981 138.922 45.4592 134.387C58.0204 129.853 39.6835 79.0612 52.2446 74.5263C64.8058 69.9914 83.1427 120.783 95.6745 116.258C108.236 111.723 89.8991 60.9321 102.43 56.408C114.992 51.873 133.329 102.664 145.86 98.1402C158.422 93.6052 140.085 42.8139 152.645 38.2793C165.207 33.7443 183.544 84.5356 196.105 80.0006C208.665 75.4659 190.329 24.6746 202.89 20.1396C215.451 15.6046 233.788 66.3959 246.35 61.861C258.91 57.3263 240.573 6.53498 253.135 1.99999" stroke="#FFCC17" stroke-width="3" stroke-miterlimit="10" stroke-linecap="round"/>
</svg>
