<svg width="714" height="107" viewBox="0 0 714 107" fill="none" xmlns="http://www.w3.org/2000/svg">
<path d="M2 38.9928C2 75.4477 15.9113 105 33.0717 105C50.2321 105 64.1434 75.4477 64.1434 38.9927C64.1434 18.5624 58.2546 2.00026 50.9904 2.00026C43.7261 2.00026 37.8373 18.5624 37.8373 38.9927C37.8373 75.4477 51.7485 105 68.909 105C86.0695 105 99.9812 75.4477 99.9812 38.9927C99.9812 18.5624 94.0921 2.00026 86.8276 2.00026C79.5634 2.00026 73.6746 18.5624 73.6746 38.9927C73.6746 75.4477 87.6713 105 104.937 105C122.202 105 136.2 75.4477 136.2 38.9927C136.2 18.5624 130.31 2.00026 123.046 2.00026C115.782 2.00026 109.894 18.5624 109.894 38.9927C109.894 75.4477 123.804 105 140.965 105C158.125 105 172.036 75.4477 172.036 38.9927C172.036 18.5624 166.148 2.00026 158.884 2.00026C151.619 2.00026 145.73 18.5624 145.73 38.9927C145.73 75.4477 159.642 105 176.802 105C193.963 105 207.874 75.4477 207.874 38.9927C207.874 18.5624 201.985 2.00026 194.721 2.00026C187.457 2.00026 181.568 18.5624 181.568 38.9927C181.568 75.4477 195.48 105 212.639 105C229.8 105 243.711 75.4477 243.711 38.9927C243.711 18.5624 237.822 2.00026 230.558 2.00026C223.294 2.00026 217.405 18.5624 217.405 38.9927M217.405 38.9927C217.405 75.4477 231.401 105 248.667 105C265.933 105 279.93 75.4477 279.93 38.9927M217.405 38.9927C217.405 75.4477 231.947 105 249.107 105C266.267 105 280.179 75.4475 280.179 38.9925C280.179 18.5622 274.29 2.00001 267.026 2.00001C259.761 2.00001 253.873 18.5622 253.873 38.9925C253.873 75.4475 267.784 105 284.944 105C302.105 105 316.016 75.4475 316.016 38.9925C316.016 18.5622 310.127 2 302.863 2C295.599 2.00001 289.71 18.5622 289.71 38.9925C289.71 75.4475 303.707 105 320.972 105C338.238 105 352.235 75.4475 352.235 38.9925C352.235 18.5622 346.346 2 339.081 2C331.817 2 325.929 18.5622 325.929 38.9925C325.929 75.4475 339.84 105 357 105C374.161 105 388.071 75.4475 388.071 38.9925C388.071 18.5622 382.183 2 374.919 2C367.655 2 361.765 18.5622 361.765 38.9925C361.765 75.4475 375.677 105 392.838 105C409.998 105 423.909 75.4475 423.909 38.9925C423.909 18.5622 418.02 2 410.757 2C403.492 2 397.603 18.5622 397.603 38.9925C397.603 75.4475 411.515 105 428.674 105C445.835 105 459.747 75.4475 459.747 38.9925C459.747 18.5622 453.858 2 446.593 2C439.33 2 433.441 18.5622 433.441 38.9925M433.441 38.9925C433.441 75.4475 447.437 105 464.702 105C481.968 105 495.965 75.4475 495.965 38.9925M433.441 38.9925C433.441 75.4475 447.982 105 465.142 105C482.302 105 496.214 75.4475 496.214 38.9925C496.214 18.5622 490.325 2.00001 483.061 2.00001C475.796 2.00001 469.908 18.5622 469.908 38.9925C469.908 75.4475 483.819 105 500.979 105C518.14 105 532.052 75.4475 532.052 38.9925C532.052 18.5622 526.162 2 518.898 2.00001C511.634 2.00001 505.745 18.5622 505.745 38.9925C505.745 75.4475 519.742 105 537.007 105C554.273 105 568.27 75.4475 568.27 38.9925C568.27 18.5622 562.381 2 555.116 2C547.852 2 541.964 18.5622 541.964 38.9925C541.964 75.4475 555.875 105 573.035 105C590.196 105 604.106 75.4475 604.106 38.9925C604.106 18.5622 598.218 2 590.954 2C583.69 2 577.8 18.5622 577.8 38.9925C577.8 75.4475 591.712 105 608.873 105C626.033 105 639.944 75.4475 639.944 38.9925C639.944 18.5622 634.055 2 626.792 2C619.527 2 613.638 18.5622 613.638 38.9925C613.638 75.4475 627.55 105 644.709 105C661.87 105 675.782 75.4475 675.782 38.9925C675.782 18.5622 669.893 2 662.628 2C655.365 2 649.476 18.5622 649.476 38.9925C649.476 75.4475 663.472 105 680.737 105C698.003 105 712 75.4475 712 38.9925" stroke="#949494" stroke-width="3" stroke-linecap="round"/>
</svg>
