<svg width="286" height="435" viewBox="0 0 286 435" fill="none" xmlns="http://www.w3.org/2000/svg">
<path d="M256.949 0.527092L217.502 217.216L336.942 32.1636L217.575 217.263L398.739 92.0039L217.624 217.334L432.932 170.937L217.643 217.419L434.316 256.949L217.627 217.502L402.679 336.942L217.58 217.575L342.839 398.739L217.509 217.624L263.906 432.932L217.425 217.643L177.895 434.316L217.341 217.627L97.901 402.679L217.268 217.58L36.1043 342.839L217.219 217.509L1.91071 263.906L217.201 217.425L0.527107 177.895L217.216 217.341L32.1636 97.9009L217.263 217.268L92.004 36.1042L217.334 217.219L170.938 1.91069L217.419 217.201L256.949 0.527092Z" stroke="#FFCC17" stroke-width="4"/>
</svg>
