<svg width="25" height="24" viewBox="0 0 25 24" fill="none" xmlns="http://www.w3.org/2000/svg">
<path d="M9.49997 11.2221L13.2778 14.9999M8.47485 20.9748C7.10801 22.3416 4.5 21.9999 2.5 21.9999C3.5251 19.9999 2.15827 17.3919 3.5251 16.0251C4.89194 14.6582 7.10801 14.6582 8.47485 16.0251C9.84168 17.3919 9.84168 19.608 8.47485 20.9748ZM12.4216 15.9245L21.5587 6.05647C22.3635 5.1873 22.3375 3.83752 21.4999 2.99993C20.6624 2.16234 19.3126 2.13639 18.4434 2.94117L8.57534 12.0783C8.0654 12.5504 7.81043 12.7865 7.66173 13.0383C7.30514 13.6421 7.29079 14.3885 7.62391 15.0055C7.76283 15.2628 8.00853 15.5085 8.49995 15.9999C8.99136 16.4913 9.23707 16.737 9.49438 16.876C10.1114 17.2091 10.8578 17.1947 11.4616 16.8381C11.7134 16.6894 11.9494 16.4345 12.4216 15.9245Z" stroke="#242424" stroke-width="2" stroke-linecap="round" stroke-linejoin="round"/>
</svg>
