<svg width="137" height="137" viewBox="0 0 137 137" fill="none" xmlns="http://www.w3.org/2000/svg">
<path d="M80.7823 0.518946L68.4156 68.4526L105.861 10.4372L68.4384 68.4675L125.235 29.1976L68.4536 68.4895L135.955 53.9439L68.4596 68.5161L136.388 80.9091L68.4548 68.5424L126.47 105.988L68.4398 68.5652L107.71 125.361L68.4178 68.5805L82.9634 136.081L68.3912 68.5864L55.9982 136.515L68.3649 68.5816L30.9196 126.597L68.3421 68.5667L11.5459 107.836L68.3269 68.5446L0.825896 83.0902L68.321 68.518L0.392126 56.125L68.3258 68.4917L10.3104 31.0464L68.3407 68.4689L29.0708 11.6727L68.3627 68.4537L53.8171 0.952715L68.3893 68.4478L80.7823 0.518946Z" stroke="#FFCC17" stroke-width="2"/>
</svg>
