<svg width="25" height="25" viewBox="0 0 25 25" fill="none" xmlns="http://www.w3.org/2000/svg">
<path d="M2.99954 9.45312H21.9995M10.4995 3.45312L8.49954 9.45312L12.4995 20.9531L16.4995 9.45312L14.4995 3.45312M13.1141 20.7156L22.0727 9.96527C22.2246 9.78308 22.3005 9.69198 22.3295 9.59029C22.3551 9.50063 22.3551 9.40561 22.3295 9.31596C22.3005 9.21427 22.2246 9.12317 22.0727 8.94098L17.7394 3.74098C17.6512 3.63517 17.6072 3.58226 17.5531 3.54423C17.5052 3.51053 17.4518 3.48551 17.3953 3.47029C17.3314 3.45312 17.2626 3.45312 17.1248 3.45312H7.87424C7.7365 3.45312 7.66764 3.45312 7.60382 3.47029C7.54728 3.48551 7.49385 3.51053 7.44596 3.54423C7.39192 3.58226 7.34783 3.63517 7.25966 3.74098L2.92633 8.94098C2.7745 9.12317 2.69858 9.21427 2.66957 9.31596C2.644 9.40561 2.644 9.50063 2.66957 9.59029C2.69858 9.69198 2.7745 9.78308 2.92633 9.96527L11.885 20.7156C12.096 20.9689 12.2015 21.0955 12.3279 21.1417C12.4387 21.1822 12.5603 21.1822 12.6712 21.1417C12.7975 21.0955 12.9031 20.9689 13.1141 20.7156Z" stroke="#949494" stroke-width="2" stroke-linecap="round" stroke-linejoin="round"/>
</svg>
