<svg width="157" height="34" viewBox="0 0 157 34" fill="none" xmlns="http://www.w3.org/2000/svg">
<path fill-rule="evenodd" clip-rule="evenodd" d="M4.47348 5.48819L6.93713 13.4527L0 17.4016L6.74264 21.2834L4.66797 28.7795L12.5776 27.1063L16.6621 34L20.6817 27.1063L28.1375 28.7795L26.1925 21.2834L33 17.4016L26.1925 13.4527L28.1375 5.48819L20.9411 6.96063L16.6621 0L12.2534 7.29527L4.47348 5.48819ZM7.39096 13.3189V20.8149L12.5128 26.3701H20.6169L25.6739 20.8149V13.3189L20.6169 7.62992H12.5128L7.39096 13.3189Z" fill="#FFCC17"/>
<path d="M24.1179 17C24.1179 21.3617 20.6927 24.8976 16.4676 24.8976C12.2424 24.8976 8.81727 21.3617 8.81727 17C8.81727 12.6382 12.2424 9.10237 16.4676 9.10237C20.6927 9.10237 24.1179 12.6382 24.1179 17ZM10.9294 17C10.9294 20.1575 13.4089 22.7172 16.4676 22.7172C19.5262 22.7172 22.0057 20.1575 22.0057 17C22.0057 13.8425 19.5262 11.2828 16.4676 11.2828C13.4089 11.2828 10.9294 13.8425 10.9294 17Z" fill="#FFF06D"/>
<path d="M11.7348 1.87406L7.84477 4.21658L11.7348 6.29138V1.87406Z" fill="#FF9417"/>
<path d="M21.2005 1.87406L25.0905 4.21658L21.2005 6.29138V1.87406Z" fill="#FF9417"/>
<path d="M20.8762 32.2599L24.7662 29.9174L20.8762 27.8426V32.2599Z" fill="#FF9417"/>
<path d="M12.3182 32.2599L8.42825 29.9174L12.3182 27.8426V32.2599Z" fill="#FF9417"/>
<path d="M2.72299 9.83857L1.42632 13.7874L5.57564 13.1181L2.72299 9.83857Z" fill="#FF9417"/>
<path d="M1.70932 21.4587L3.4399 25.2261L5.96864 21.7647L1.70932 21.4587Z" fill="#FF9417"/>
<path d="M30.722 25.4508L32.3145 21.619L28.1271 21.9506L30.722 25.4508Z" fill="#FF9417"/>
<path d="M31.3079 13.5619L29.9749 9.62598L27.1042 12.7904L31.3079 13.5619Z" fill="#FF9417"/>
<path d="M60.824 8.63L57.872 9.38601C57.476 8.09001 56.252 7.154 54.812 7.154C53.048 7.154 51.608 8.59401 51.608 10.358C51.608 12.122 53.048 13.562 54.812 13.562C59.312 13.562 62.984 17.234 62.984 21.698C62.984 26.198 59.312 29.834 54.812 29.834C51.104 29.834 47.936 27.314 47 23.894L49.916 23.138C50.528 25.262 52.508 26.846 54.812 26.846C57.656 26.846 59.96 24.542 59.96 21.698C59.96 18.89 57.656 16.586 54.812 16.586C51.392 16.586 48.584 13.778 48.584 10.358C48.584 6.93801 51.392 4.13 54.812 4.13C57.656 4.13 60.068 6.03801 60.824 8.63Z" fill="#949494"/>
<path d="M75.3087 4.45401H78.3327V22.922C78.3327 26.738 75.2007 29.87 71.3847 29.87C67.5687 29.87 64.4727 26.738 64.4727 22.922V4.45401H67.4607V22.922C67.4607 25.082 69.2247 26.846 71.3847 26.846C73.5447 26.846 75.3087 25.082 75.3087 22.922V4.45401Z" fill="#949494"/>
<path d="M79.8008 4.49H82.7888L90.6368 22.598V4.49H93.6608V29.546H90.6368L82.7888 11.438V29.546H79.8008V4.49Z" fill="#949494"/>
<path d="M105.425 15.29C107.549 16.73 108.917 19.07 108.989 21.59C109.061 25.514 105.893 29.006 101.825 29.51L101.717 29.546H95.1289V4.49H101.753L101.861 4.52601C104.849 4.958 107.153 7.40601 107.333 10.358C107.477 12.23 106.721 14.03 105.425 15.29ZM98.1169 7.51401V12.77L102.041 13.922C103.481 13.418 104.453 12.05 104.345 10.574C104.237 9.06201 103.049 7.76601 101.501 7.51401H98.1169ZM101.537 26.522C104.057 26.162 106.001 24.038 105.965 21.626C105.929 19.718 104.561 17.918 102.581 17.234L102.005 17.054L98.1169 15.902V26.522H101.537Z" fill="#949494"/>
<path d="M123.633 26.522C123.849 27.53 124.065 28.502 124.281 29.51H110.457V4.49H124.281C124.065 5.498 123.849 6.506 123.633 7.51401H113.445V12.878H120.321C120.105 13.886 119.889 14.858 119.673 15.866H113.445V26.522H123.633Z" fill="#949494"/>
<path d="M134.21 4.49C136.01 12.842 137.81 21.194 139.61 29.51H136.586L136.442 28.79L136.37 28.61C136.01 27.026 134.786 25.694 133.094 25.082L129.926 24.146L128.738 29.51H125.75C127.55 21.194 129.35 12.842 131.186 4.49H134.21ZM134.066 22.238C134.426 22.346 134.786 22.49 135.11 22.67C134.282 18.926 133.49 15.182 132.662 11.438C131.978 14.678 131.258 17.918 130.574 21.194L134.066 22.238Z" fill="#949494"/>
<path d="M153.678 4.49H156.666V29.546H153.678V11.438L151.914 15.506L150.582 18.53L150.366 19.034L148.854 22.526L147.378 19.034L147.126 18.53L145.83 15.506L144.066 11.438V29.546H141.078V4.49H144.066L148.854 15.506V15.542L148.89 15.506L153.678 4.49Z" fill="#949494"/>
<path fill-rule="evenodd" clip-rule="evenodd" d="M4.47348 5.48819L6.93713 13.4527L0 17.4016L6.74264 21.2834L4.66797 28.7795L12.5776 27.1063L16.6621 34L20.6817 27.1063L28.1375 28.7795L26.1925 21.2834L33 17.4016L26.1925 13.4527L28.1375 5.48819L20.9411 6.96063L16.6621 0L12.2534 7.29527L4.47348 5.48819ZM7.39096 13.3189V20.8149L12.5128 26.3701H20.6169L25.6739 20.8149V13.3189L20.6169 7.62992H12.5128L7.39096 13.3189Z" fill="#949494"/>
<path d="M24.1179 17C24.1179 21.3617 20.6927 24.8976 16.4676 24.8976C12.2424 24.8976 8.81727 21.3617 8.81727 17C8.81727 12.6382 12.2424 9.10237 16.4676 9.10237C20.6927 9.10237 24.1179 12.6382 24.1179 17ZM10.9294 17C10.9294 20.1575 13.4089 22.7172 16.4676 22.7172C19.5262 22.7172 22.0057 20.1575 22.0057 17C22.0057 13.8425 19.5262 11.2828 16.4676 11.2828C13.4089 11.2828 10.9294 13.8425 10.9294 17Z" fill="#949494"/>
<path d="M11.7348 1.87406L7.84477 4.21658L11.7348 6.29138V1.87406Z" fill="#949494"/>
<path d="M21.2005 1.87406L25.0905 4.21658L21.2005 6.29138V1.87406Z" fill="#949494"/>
<path d="M20.8762 32.2599L24.7662 29.9174L20.8762 27.8426V32.2599Z" fill="#949494"/>
<path d="M12.3182 32.2599L8.42825 29.9174L12.3182 27.8426V32.2599Z" fill="#949494"/>
<path d="M2.72299 9.83857L1.42632 13.7874L5.57564 13.1181L2.72299 9.83857Z" fill="#949494"/>
<path d="M1.70932 21.4587L3.4399 25.2261L5.96864 21.7647L1.70932 21.4587Z" fill="#949494"/>
<path d="M30.722 25.4508L32.3145 21.619L28.1271 21.9506L30.722 25.4508Z" fill="#949494"/>
<path d="M31.3079 13.5619L29.9749 9.62598L27.1042 12.7904L31.3079 13.5619Z" fill="#949494"/>
</svg>
