<svg width="228" height="34" viewBox="0 0 228 34" fill="none" xmlns="http://www.w3.org/2000/svg">
<path fill-rule="evenodd" clip-rule="evenodd" d="M4.47348 5.48819L6.93713 13.4527L0 17.4016L6.74264 21.2834L4.66797 28.7795L12.5776 27.1063L16.6621 34L20.6817 27.1063L28.1375 28.7795L26.1925 21.2834L33 17.4016L26.1925 13.4527L28.1375 5.48819L20.9411 6.96063L16.6621 0L12.2534 7.29527L4.47348 5.48819ZM7.39096 13.3189V20.8149L12.5128 26.3701H20.6169L25.6739 20.8149V13.3189L20.6169 7.62992H12.5128L7.39096 13.3189Z" fill="#949494"/>
<path d="M24.1179 17C24.1179 21.3617 20.6927 24.8976 16.4676 24.8976C12.2424 24.8976 8.81727 21.3617 8.81727 17C8.81727 12.6382 12.2424 9.10237 16.4676 9.10237C20.6927 9.10237 24.1179 12.6382 24.1179 17ZM10.9294 17C10.9294 20.1575 13.4089 22.7172 16.4676 22.7172C19.5262 22.7172 22.0057 20.1575 22.0057 17C22.0057 13.8425 19.5262 11.2828 16.4676 11.2828C13.4089 11.2828 10.9294 13.8425 10.9294 17Z" fill="#949494"/>
<path d="M11.7348 1.87406L7.84477 4.21658L11.7348 6.29138V1.87406Z" fill="#949494"/>
<path d="M21.2005 1.87406L25.0905 4.21658L21.2005 6.29138V1.87406Z" fill="#949494"/>
<path d="M20.8762 32.2599L24.7662 29.9174L20.8762 27.8426V32.2599Z" fill="#949494"/>
<path d="M12.3182 32.2599L8.42825 29.9174L12.3182 27.8426V32.2599Z" fill="#949494"/>
<path d="M2.72299 9.83857L1.42632 13.7874L5.57564 13.1181L2.72299 9.83857Z" fill="#949494"/>
<path d="M1.70932 21.4587L3.4399 25.2261L5.96864 21.7647L1.70932 21.4587Z" fill="#949494"/>
<path d="M30.722 25.4508L32.3145 21.619L28.1271 21.9506L30.722 25.4508Z" fill="#949494"/>
<path d="M31.3079 13.5619L29.9749 9.62598L27.1042 12.7904L31.3079 13.5619Z" fill="#949494"/>
<path fill-rule="evenodd" clip-rule="evenodd" d="M212.989 30.2482L218.566 3.5H221.871L227.5 30.2482H224.143C223.494 26.6812 221.886 25.4839 217.223 24.4976L216.242 30.2482H212.989ZM218.205 21.3849C220.007 21.7346 220.991 22.058 222.697 22.8621L220.167 11.1499L218.205 21.3849Z" fill="#949494"/>
<path d="M195.886 3.5H192.829V30.2482H206.614L205.837 33.3951H209.206L210.501 26.9852H207.392V3.5H204.127V26.9852H195.886V3.5Z" fill="#949494"/>
<path d="M178.951 3.5H175.83V30.2482H178.951V21.2972H187.22V30.2482H190.341V3.5H187.22V17.9995H178.951V3.5Z" fill="#949494"/>
<path d="M161.941 30.2482H158.831L164.532 3.5H173.342V30.2482H170.129V6.5191H167.071L161.941 30.2482Z" fill="#949494"/>
<path d="M130.073 25.937C127.602 28.5878 124.06 30.2482 120.126 30.2482C112.656 30.2482 106.6 24.2604 106.6 16.8741C106.6 9.48778 112.656 3.5 120.126 3.5C124.046 3.5 127.577 5.14892 130.048 7.78358L127.87 9.98533C125.963 7.8912 123.2 6.57451 120.126 6.57451C114.373 6.57451 109.709 11.1858 109.709 16.8741C109.709 22.5624 114.373 27.1737 120.126 27.1737C123.238 27.1737 126.032 25.8242 127.941 23.6846L130.073 25.937Z" fill="#949494"/>
<path d="M94.4723 30.4579H91.1557V21.7001L87.1248 20.5922C87.1248 20.5922 84.3922 19.8419 83.0428 18.6929L83.0337 18.6852C82.0465 17.8446 81.7647 17.6046 80.9508 16.055C80.3794 14.9672 80.2193 14.3302 80.1344 13.1533C79.8792 9.61856 79.9813 3.7097 79.9813 3.7097H83.0428C83.0428 3.7097 82.8897 9.88235 83.2469 13.1533C83.3834 14.4034 83.8309 15.0639 84.8287 15.8967C85.5986 16.5395 86.2005 16.6392 87.1248 17.0047C88.6415 17.6044 91.1557 18.0598 91.1557 18.0598V3.7097H94.4723V30.4579Z" fill="#949494"/>
<path d="M67.1829 30.4579H63.9988L69.6363 16.7654L63.9988 3.7097H67.2351L71.3588 13.0503L75.2737 3.7097H78.51L67.1829 30.4579Z" fill="#949494"/>
<path d="M50.1095 30.458H47L52.7008 3.70975H61.5112V30.458H58.298V6.72886H55.2403L50.1095 30.458Z" fill="#949494"/>
<path fill-rule="evenodd" clip-rule="evenodd" d="M144.258 30.4547C151.645 30.4547 157.633 24.4665 157.633 17.0797C157.633 9.69286 151.645 3.70467 144.258 3.70467C136.872 3.70467 130.883 9.69286 130.883 17.0797C130.883 24.4665 136.872 30.4547 144.258 30.4547ZM144.183 27.3047C149.872 27.3047 154.483 22.6932 154.483 17.0047C154.483 11.3161 149.872 6.70467 144.183 6.70467C138.495 6.70467 133.883 11.3161 133.883 17.0047C133.883 22.6932 138.495 27.3047 144.183 27.3047Z" fill="#949494"/>
</svg>
