<svg width="290" height="79" viewBox="0 0 290 79" fill="none" xmlns="http://www.w3.org/2000/svg">
<path d="M2 28.9363C2 55.4813 14.6552 77 30.2648 77C45.8753 77 58.5306 55.4813 58.5306 28.9363C58.5306 14.0599 53.1735 2 46.5652 2C39.9578 2 34.6006 14.0599 34.6006 28.9363M34.6006 28.9363C34.6006 55.4813 47.3326 77 63.0387 77C78.7448 77 91.4777 55.4813 91.4777 28.9363M34.6006 28.9363C34.6006 55.4813 47.8282 77 63.4387 77C79.0491 77 91.704 55.4813 91.704 28.9363C91.704 14.0599 86.3471 2 79.7389 2C73.1308 2 67.7738 14.0599 67.7738 28.9363C67.7738 55.4813 80.4286 77 96.0391 77C111.65 77 124.305 55.4813 124.305 28.9363C124.305 14.0599 118.948 2 112.339 2C105.731 2 100.374 14.0599 100.374 28.9363C100.374 55.4813 113.107 77 128.813 77C144.519 77 157.252 55.4813 157.252 28.9363C157.252 14.0599 151.895 2 145.286 2C138.678 2 133.322 14.0599 133.322 28.9363C133.322 55.4813 145.976 77 161.587 77C177.197 77 189.852 55.4813 189.852 28.9363C189.852 14.0599 184.495 2 177.887 2C171.279 2 165.922 14.0599 165.922 28.9363C165.922 55.4813 178.577 77 194.187 77C209.798 77 222.452 55.4813 222.452 28.9363C222.452 14.0599 217.095 2 210.488 2C203.879 2 198.522 14.0599 198.522 28.9363C198.522 55.4813 211.178 77 226.787 77C242.398 77 255.053 55.4813 255.053 28.9363C255.053 14.0599 249.696 2 243.087 2C236.48 2 231.123 14.0599 231.123 28.9363C231.123 55.4813 243.855 77 259.561 77C275.267 77 288 55.4813 288 28.9363" stroke="#FFCC17" stroke-width="3" stroke-linecap="round"/>
</svg>
